<?xml version="1.0" encoding="utf-8"?>
<!-- Generator: Adobe Illustrator 25.1.0, SVG Export Plug-In . SVG Version: 6.00 Build 0)  -->
<svg version="1.1" id="Layer_1" xmlns="http://www.w3.org/2000/svg" xmlns:xlink="http://www.w3.org/1999/xlink" x="0px" y="0px"
	 viewBox="0 0 800 250" style="enable-background:new 0 0 800 250;" xml:space="preserve">
<style type="text/css">
	.st0{fill:#1C77BD;}
	.st1{fill:#F39026;}
	.st2{fill:#B6222D;}
	.st3{fill:#0A974F;}
	.st4{enable-background:new    ;}
</style>
<g>
	<path class="st0" d="M192.6,93.9c-0.5,0.1-1.1,0.1-1.6,0c0,0,0,0,0,0h0L192.6,93.9z"/>
	<path class="st0" d="M199.2,98.1l-58.8,102l-3.8,6.6l-2.7,4.7l-4.2,7.3l-3.8,6.5l-0.3,0.5c-2.8,4.8-8.9,6.4-13.6,3.6
		c-1.8-1-3.1-2.5-3.9-4.1c-0.9-1.9-1.3-4-1-6.1c0.2-1.2,0.6-2.4,1.2-3.4l1.7-2.9l2.2-3.8l5.7-9.8l58.2-100.7l14.6-0.2l2.3,0
		L199.2,98.1z"/>
	<path class="st0" d="M173,72.3l-12.8,22.2c-1.8,3-4.9,4.7-8.2,4.7c-1.4,0-2.8-0.3-4.2-1c-3.4-1.7-5.3-5-5.3-8.5
		c0-1.6,0.4-3.3,1.3-4.8c1.3-2.2-0.4-5.1-3-5.1H54.4c-4.1,0-6.7,4.5-4.6,8l41.3,71.6c2.1,3.7,7.5,3.7,9.6,0l1.5-2.6
		c2.6-4.5,7.3-7,12.2-7c2.1,0,4.2,0.5,6.2,1.4c2.8,1.4,3.9,4.9,2.3,7.7L103,193.6c-3.1,5.4-11,5.4-14.1,0L30.8,93L30,91.6l-5.3-9.1
		c-0.3-0.5-0.5-1-0.8-1.5v0c-0.7-1.7-1.1-3.4-1.2-5.1c-0.2-5.5,2.8-10.7,7.7-13.3c1.4-0.7,2.9-1.2,4.6-1.5v0
		c0.7-0.1,1.4-0.1,2.1-0.1h129.3C172.3,61,175.9,67.3,173,72.3z"/>
	<g>
		<polygon class="st1" points="190.3,95 190.3,95 190.3,95 		"/>
		<path class="st1" d="M187.6,76.9c0,0-0.1,0.1-0.1,0.1l0.1,0C187.6,77,187.6,77,187.6,76.9z"/>
		<path class="st1" d="M202,73.6l-0.4,0.1c0.3,0.7,0.2,1.3-0.1,1.7c-0.2,0.3-0.6,0.5-0.9,0.6h0c-0.4,0.1-0.7,0.2-0.7,0.2
			c-0.7,0-1.1,0.2-1.4,0.5c-0.3,0.4-0.3,0.9-0.3,1.3l0,0c-0.8-0.5-1.7-0.8-2.6-0.9h0c-0.1,0-0.2,0-0.4,0c-1.1,0-2.3,0.3-3.2,1
			c-0.2,0.1-0.4,0.3-0.5,0.4c-0.3,0.3-0.6,0.6-0.8,0.9l-1,1.4l-3,4.5c-0.7,1-1,2.2-0.9,3.3c0,0,0,0,0,0c0.1,0.8,0.3,1.7,0.8,2.4
			c0.4,0.7,0.9,1.2,1.6,1.7l0.4,0.3c0.7,0.5,1.4,0.7,2.2,0.8h0v0c0.6,0.1,1.1,0.1,1.6,0h0l0,0c0,0,0,0,0,0c0,0,0,0,0,0l0.4-0.2
			l0.3,0h0c0.5-0.2,1-0.4,1.4-0.7l0,0c0.5-0.4,0.9-0.8,1.3-1.3l3-4.4l0.5-0.8l0.5-0.7c0.4-0.5,0.6-1.1,0.7-1.7v0
			c0.3-1.1,0.2-2.3-0.3-3.4c-0.4-0.9-1-1.7-1.9-2.3c-0.1-0.2-0.2-0.9,0.1-1.4c0.2-0.3,0.6-0.4,1.1-0.4c0,0,0.5,0,1-0.2
			c0.3-0.1,0.6-0.3,0.9-0.7C202.2,75.2,202.3,74.5,202,73.6z M192.4,81.9l-1.9-1.2l0.6-0.9c0.3-0.4,0.6-0.7,0.9-1
			c0,0,0.1-0.1,0.1-0.1c0.9-0.8,2.1-1.2,3.4-1.1h0c0.9,0,1.7,0.3,2.5,0.8l0.2,0.2l-0.6,1c-0.3-0.1-0.7-0.1-1,0.2
			c0,0-0.1,0.1-0.1,0.2l-1.1,1.6c-0.3,0.4-0.2,0.8,0.1,1.2l-0.7,1L192.4,81.9z M197.8,80.7l-0.4,0.6l-0.7,1.1
			c-0.2,0.3-0.5,0.3-0.8,0.2s-0.3-0.5-0.1-0.8l1.1-1.6l0,0c0.2-0.3,0.5-0.3,0.8-0.2c0.1,0.1,0.2,0.2,0.2,0.4
			C197.9,80.4,197.9,80.6,197.8,80.7z M200.3,80.9c0.4,1.1,0.5,2.2,0.1,3.3c-0.1,0.4-0.3,0.9-0.6,1.3l-0.3,0.5l-0.3,0.5l-1.8-1.2
			l-0.4-0.3l-1.7-1.2l0.7-1c0.4,0.2,0.9,0,1.1-0.3l0.6-0.9l0.5-0.7c0.1-0.2,0.2-0.5,0.1-0.7c0-0.2-0.1-0.3-0.3-0.5l0.6-1
			C199.4,79.3,200,80.1,200.3,80.9z"/>
	</g>
	<path class="st2" d="M187.5,77L187.5,77c0.1,0,0.1-0.1,0.1-0.1C187.5,76.9,187.5,77,187.5,77z"/>
	<path class="st3" d="M210.4,85.1c-1.9,3.2-5,5.7-8.9,6.5c-0.1,0-0.2,0-0.2,0.1c0,0,0,0-0.1,0c-1.3,0.3-2.5,0.3-3.8,0.2
		c0,0,0,0-0.1,0l0.3-0.4c0.2,0,0.5,0,0.7,0h0c0.9,0,1.8-0.1,2.8-0.3c0.1,0,0.1,0,0.2,0c0.1,0,0.1,0,0.2-0.1c3.8-0.9,6.9-3.4,8.6-6.6
		c1.6-2.9,2.1-6.4,1.2-9.8c-1.4-5.2-5.9-9-11-9.7c-1.2-0.2-2.4-0.2-3.6,0c-2.7,0.4-5.1,1.5-6.9,3.2c-3.3,2.9-5.1,7.4-4.4,12
		c0,0.2,0.1,0.5,0.1,0.7c0.2,0.9,0.4,1.8,0.8,2.6c0.1,0.1,0.1,0.3,0.1,0.4c0,0.2-0.1,0.4-0.2,0.5c-0.5-1.1-0.9-2.2-1.2-3.4
		c0-0.1,0-0.2,0-0.2c-0.9-4.9,0.9-9.8,4.5-12.9c1.9-1.7,4.4-2.9,7.1-3.3c1.1-0.2,2.3-0.2,3.4,0c5.5,0.6,10.3,4.6,11.8,10.1
		C212.8,78.3,212.2,82,210.4,85.1z"/>
	<path class="st2" d="M209.1,81.6c-0.9,2.7-2.8,5-5.3,6.3c-0.9,0.5-1.9,0.9-3,1.1c0,0-0.1,0-0.1,0c-0.5,0.1-1,0.2-1.4,0.2
		c0.2-0.3,0.5-0.5,0.9-0.6c0.1,0,0.3,0,0.4-0.1l0.2,0c1.3-0.3,2.5-0.8,3.6-1.4c2.3-1.4,3.9-3.7,4.6-6.2c0.5-1.9,0.5-4-0.2-6
		c-0.6-2-1.9-3.7-3.5-5c-0.6-0.4-1.1-0.8-1.8-1.1c-0.3-0.2-0.6-0.3-0.9-0.4c-1.5-0.6-3.1-0.8-4.8-0.7c-2.5,0.2-4.6,1.3-6.3,2.8
		c-1.6,1.5-2.8,3.6-3.2,5.8c0,0,0,0,0,0c-0.1,0.3-0.1,0.7-0.1,1.1c-0.1,1,0,2,0.2,3c0,0.1,0.1,0.3,0.1,0.4c0.1,0.3,0,0.5-0.1,0.8
		l-0.1,0.2c-0.1-0.4-0.2-0.8-0.3-1.2c-0.2-1.1-0.3-2.2-0.2-3.3c0-0.1,0-0.1,0-0.2c0.3-2.7,1.6-5.1,3.5-6.9c1.7-1.6,4-2.7,6.5-2.9
		c1.5-0.1,3.1,0.1,4.5,0.5c0.7,0.2,1.3,0.5,1.9,0.8c0.3,0.2,0.6,0.4,0.9,0.6c1.9,1.3,3.4,3.3,4.2,5.6
		C209.8,77.1,209.8,79.4,209.1,81.6z"/>
	<path class="st0" d="M206.4,78.3c0,1.4-0.4,2.8-1.1,4c-0.8,1.3-2.1,2.4-3.6,3.1c0.3-0.5,0.7-0.9,1.1-1.2c1-0.7,1.8-1.7,2.3-2.8
		c0.6-1.3,0.9-2.8,0.7-4.3c0-0.1,0-0.2-0.1-0.3c-0.8-3.9-4.7-6.5-8.6-5.7c-0.3,0.1-0.5,0.1-0.8,0.2c-1.1,0.4-2.1,1-2.9,1.8
		c-0.1,0.1-0.2,0.2-0.2,0.3c-0.6,0.6-1,1.3-1.3,2c-0.3,0.6-0.6,1.2-0.9,1.8l-0.1,0.1c0.2-1.5,0.8-2.8,1.8-4c0.1-0.1,0.2-0.3,0.3-0.4
		c1.2-1.3,2.9-2.2,4.9-2.4c0.1,0,0.2,0,0.3,0c3.5-0.2,6.8,2,7.9,5.4c0.1,0.2,0.1,0.3,0.1,0.5C206.3,77.1,206.4,77.7,206.4,78.3z"/>
	<path class="st2" d="M193.3,57.7c-0.2,2.5-2.2,4.6-4.7,4.9c-1.6,0.2-3.1-0.3-4.2-1.3c-0.3-0.4-0.6-0.7-0.9-1.1
		c-16.4-18.6-40.4-30.4-67.1-30.4c-24.3,0-46.3,9.7-62.4,25.4c-0.5,0.5-1.1,0.8-1.7,1.1c-0.6,0.3-1.3,0.4-2,0.4
		c-4.7,0-7.1-5.7-3.7-9c18-17.5,42.7-28.4,69.8-28.4c29.8,0,56.5,13.1,74.9,33.7c0.5,0.5,0.9,1,1.4,1.6
		C193.2,55.5,193.4,56.6,193.3,57.7z"/>
	<path class="st3" d="M101.7,207.3c2.7,0.4,4.1,3.4,2.7,5.7l0,0c0,0,0,0,0,0.1c-1.7,3-5,4.6-8.4,3.9c-45.6-9.3-80-49.7-80-98.1
		c0-6.8,0.7-13.4,2-19.9c0.1-0.3,0.1-0.6,0.2-0.8c0.2-1.1,0.7-2.1,1.5-2.8c1-0.9,2.2-1.5,3.6-1.5c2.9,0,5.3,2.4,5.3,5.4
		c0,0.3,0,0.7-0.1,1c0,0.1,0,0.2-0.1,0.3c0,0,0,0,0,0.1c-1.2,5.9-1.9,12-1.9,18.2C26.5,163.4,59.1,200.4,101.7,207.3z"/>
	<path class="st1" d="M217,120c0,43.6-28.1,80.3-67.1,94l-1.3,0.4c-1.3,0-2.5,0-3.8,0c-1.9-0.7-3.1-2.3-3.1-4.4
		c0-1.8,0.9-3.3,2.2-4.3c0.4-0.3,0.9-0.6,1.5-0.7c0.1-0.1,0.3-0.1,0.4-0.1c35.3-12.1,60.7-45.5,60.7-84.8c0-6.2-0.6-12.3-1.8-18.1
		c-0.2-0.8-0.3-1.6-0.5-2.4c0,0,0,0,0,0c0-1.7,0.8-3.2,2.1-4.2c0.2-0.1,0.5-0.3,0.7-0.4c0.2-0.1,0.5-0.2,0.7-0.4h0
		c0.6-0.2,1.2-0.3,1.8-0.3c2.4,0,4.4,1.6,5.1,3.7c0.1,0.3,0.1,0.6,0.2,0.9C216.3,105.6,217,112.7,217,120z"/>
	<path class="st2" d="M183.6,60.2c0.3,0.3,0.6,0.7,0.9,1.1C184.1,61,183.8,60.6,183.6,60.2z"/>
	<path class="st2" d="M192.6,54.6c-0.4-0.5-0.9-1-1.4-1.6C191.8,53.5,192.3,54,192.6,54.6z"/>
</g>
<g>
	<path class="st0" d="M284.1,110.4c-0.4,8.4-2.7,14.8-7.1,19.1c-4.4,4.3-10.5,6.5-18.5,6.5c-4.1,0-7.8-0.7-11-2s-5.9-3.4-8.1-6
		c-2.2-2.7-3.9-6-5.1-9.9c-1.2-3.9-1.8-8.5-1.8-13.6V91.8c0-5.2,0.6-9.7,1.8-13.7c1.2-4,2.9-7.3,5.2-9.9s5-4.7,8.2-6.1
		s6.8-2.1,10.9-2.1c8.1,0,14.2,2.3,18.4,6.7c4.2,4.5,6.6,11,7.1,19.4h-15c-0.1-2.6-0.3-4.8-0.7-6.6s-1-3.2-1.8-4.2
		c-0.8-1.1-1.9-1.8-3.2-2.2c-1.3-0.4-2.9-0.7-4.9-0.7c-2,0-3.7,0.3-5.1,1c-1.4,0.7-2.6,1.8-3.4,3.3c-0.9,1.5-1.5,3.5-2,5.9
		c-0.4,2.5-0.6,5.5-0.6,9v12.7c0,3.4,0.2,6.4,0.5,8.8c0.3,2.4,0.9,4.4,1.8,6s2,2.7,3.4,3.4s3.1,1.1,5.3,1.1c1.8,0,3.4-0.2,4.7-0.6
		c1.3-0.4,2.4-1.1,3.2-2.1c0.9-1,1.5-2.3,1.9-4.1c0.4-1.7,0.7-3.9,0.8-6.6L284.1,110.4L284.1,110.4z"/>
	<path class="st0" d="M345.3,104.7c0,5.2-0.6,9.7-1.9,13.7c-1.3,3.9-3.1,7.2-5.4,9.8s-5.1,4.6-8.4,5.9c-3.3,1.3-6.9,2-10.8,2
		s-7.6-0.7-10.9-2c-3.3-1.3-6.1-3.3-8.5-5.9c-2.4-2.6-4.2-5.9-5.5-9.8c-1.3-3.9-2-8.5-2-13.7V92.4c0-5.3,0.6-10,1.9-14
		c1.3-4,3.1-7.4,5.4-10.1c2.3-2.7,5.1-4.8,8.4-6.1s6.9-2.1,10.9-2.1s7.6,0.7,10.8,2.1c3.3,1.4,6.1,3.4,8.4,6.1s4.2,6.1,5.5,10.1
		c1.3,4.1,1.9,8.7,1.9,14L345.3,104.7L345.3,104.7z M330.4,92.3c0-3.5-0.3-6.5-0.8-9s-1.3-4.5-2.2-6.1c-1-1.6-2.2-2.8-3.7-3.5
		s-3.1-1.1-5-1.1c-1.9,0-3.6,0.4-5.1,1.1s-2.7,1.9-3.7,3.5c-1,1.6-1.7,3.6-2.2,6.1s-0.8,5.5-0.8,9v12.4c0,3.3,0.3,6.2,0.8,8.6
		s1.3,4.3,2.3,5.9c1,1.5,2.2,2.6,3.7,3.3s3.2,1.1,5.1,1.1c1.9,0,3.6-0.4,5-1.1s2.6-1.8,3.6-3.3s1.7-3.5,2.2-5.9s0.7-5.3,0.7-8.6
		L330.4,92.3L330.4,92.3z"/>
	<path class="st0" d="M407.8,135h-14.9L371,86.5V135h-14.9V61.1H371l21.9,48.5V61.1h14.9V135z"/>
	<path class="st0" d="M443.8,114.7l12.4-53.6h16.7L451.6,135H436l-21.2-73.9h16.5L443.8,114.7z"/>
	<path class="st0" d="M495.5,135h-14.9V61.1h14.9V135z"/>
	<path class="st0" d="M559.7,135h-14.9l-21.8-48.5V135H508V61.1h14.9l21.9,48.5V61.1h14.9V135z"/>
	<path class="st0" d="M621.8,110.4c-0.4,8.4-2.7,14.8-7.1,19.1c-4.4,4.3-10.5,6.5-18.5,6.5c-4.1,0-7.8-0.7-11-2s-5.9-3.4-8.1-6
		c-2.2-2.7-3.9-6-5-9.9c-1.2-3.9-1.8-8.5-1.8-13.6V91.8c0-5.2,0.6-9.7,1.8-13.7c1.2-4,2.9-7.3,5.2-9.9s5-4.7,8.2-6.1
		s6.8-2.1,10.9-2.1c8.1,0,14.2,2.3,18.4,6.7s6.6,11,7.1,19.4h-15c-0.1-2.6-0.3-4.8-0.7-6.6s-1-3.2-1.8-4.2c-0.8-1.1-1.9-1.8-3.2-2.2
		s-2.9-0.7-4.8-0.7c-2,0-3.7,0.3-5.1,1c-1.4,0.7-2.5,1.8-3.4,3.3s-1.5,3.5-2,5.9c-0.4,2.5-0.6,5.5-0.6,9v12.7c0,3.4,0.2,6.4,0.5,8.8
		c0.3,2.4,0.9,4.4,1.8,6c0.8,1.5,2,2.7,3.3,3.4c1.4,0.7,3.2,1.1,5.3,1.1c1.8,0,3.4-0.2,4.7-0.6c1.3-0.4,2.4-1.1,3.2-2.1
		c0.8-1,1.5-2.3,1.9-4.1c0.4-1.7,0.7-3.9,0.8-6.6L621.8,110.4L621.8,110.4L621.8,110.4z"/>
	<path class="st0" d="M669.2,103h-23.3v19.6h27.5V135H631V61.1h42.3v12.4h-27.4V91h23.3V103z"/>
	<path class="st2" d="M721.6,135h-14.9V61.1h14.9V135z"/>
	<path class="st2" d="M780.5,73.5h-18.3V135h-15V73.5h-18V61.1h51.2V73.5z"/>
</g>
<g class="st4">
	<path class="st3" d="M240.3,180.4H239v-17.8h1.4V180.4z"/>
	<path class="st3" d="M310.4,180.4H309l-8.4-15.1v15.1h-1.4v-17.8h1.4l8.4,15.2v-15.2h1.4V180.4z"/>
	<path class="st3" d="M377.3,176c0-0.5-0.1-0.9-0.2-1.3c-0.1-0.4-0.3-0.7-0.6-1c-0.3-0.3-0.7-0.6-1.2-0.9c-0.5-0.3-1.2-0.5-1.9-0.8
		c-0.7-0.3-1.4-0.5-2-0.8c-0.6-0.3-1.1-0.6-1.5-1c-0.4-0.4-0.7-0.9-1-1.4c-0.2-0.5-0.3-1.1-0.3-1.8c0-0.7,0.1-1.3,0.4-1.9
		c0.2-0.6,0.6-1,1-1.5c0.4-0.4,1-0.7,1.6-0.9c0.6-0.2,1.3-0.3,2-0.3c0.8,0,1.5,0.1,2.1,0.4s1.2,0.7,1.6,1.1c0.4,0.5,0.8,1,1,1.7
		c0.2,0.6,0.4,1.3,0.4,2.1h-1.4c0-0.6-0.1-1.1-0.3-1.6c-0.2-0.5-0.4-0.9-0.7-1.3c-0.3-0.4-0.7-0.6-1.2-0.8c-0.5-0.2-1-0.3-1.6-0.3
		c-0.6,0-1.1,0.1-1.6,0.3c-0.5,0.2-0.8,0.4-1.1,0.7c-0.3,0.3-0.5,0.6-0.7,1c-0.2,0.4-0.2,0.8-0.2,1.3c0,0.4,0.1,0.8,0.2,1.2
		c0.1,0.4,0.4,0.7,0.7,1c0.3,0.3,0.7,0.6,1.2,0.8c0.5,0.3,1.1,0.5,1.8,0.8c0.8,0.3,1.5,0.5,2.1,0.9c0.6,0.3,1.1,0.7,1.6,1.1
		c0.4,0.4,0.7,0.9,1,1.4c0.2,0.5,0.3,1.2,0.3,1.9c0,0.7-0.1,1.4-0.4,1.9c-0.3,0.6-0.6,1.1-1.1,1.5c-0.5,0.4-1,0.7-1.6,0.9
		c-0.6,0.2-1.3,0.3-2.1,0.3c-0.7,0-1.3-0.1-2-0.3c-0.7-0.2-1.3-0.5-1.8-0.9c-0.5-0.4-1-1-1.3-1.6c-0.3-0.7-0.5-1.5-0.5-2.4h1.4
		c0,0.7,0.1,1.4,0.4,1.9c0.2,0.5,0.6,0.9,1,1.2c0.4,0.3,0.8,0.5,1.3,0.7c0.5,0.1,1,0.2,1.5,0.2c0.6,0,1.1-0.1,1.5-0.2
		c0.5-0.2,0.9-0.4,1.2-0.7c0.3-0.3,0.6-0.6,0.7-1C377.2,177,377.3,176.5,377.3,176z"/>
	<path class="st3" d="M446.4,163.9h-5.1v16.5H440v-16.5h-5v-1.3h11.5V163.9z"/>
	<path class="st3" d="M505.3,180.4h-1.4v-17.8h1.4V180.4z"/>
	<path class="st3" d="M573.9,163.9h-5.1v16.5h-1.4v-16.5h-5v-1.3h11.5V163.9z"/>
	<path class="st3" d="M641.5,162.6v12.5c0,1-0.1,1.8-0.4,2.5c-0.3,0.7-0.7,1.3-1.1,1.7c-0.5,0.4-1,0.8-1.7,0.9s-1.3,0.3-2,0.3
		c-0.7,0-1.4-0.1-2.1-0.3s-1.2-0.5-1.7-0.9c-0.5-0.4-0.8-1-1.1-1.7c-0.3-0.7-0.4-1.5-0.4-2.5v-12.5h1.4v12.5c0,0.8,0.1,1.4,0.3,2
		s0.5,1,0.8,1.3c0.3,0.3,0.8,0.6,1.2,0.7c0.5,0.1,1,0.2,1.6,0.2c0.6,0,1.1-0.1,1.6-0.2c0.5-0.1,0.9-0.4,1.2-0.7
		c0.3-0.3,0.6-0.8,0.8-1.3c0.2-0.5,0.3-1.2,0.3-2v-12.5H641.5z"/>
	<path class="st3" d="M710,163.9h-5.1v16.5h-1.4v-16.5h-5v-1.3H710V163.9z"/>
	<path class="st3" d="M775.5,171.9h-6.9v7.2h7.9v1.3h-9.3v-17.8h9.3v1.3h-7.9v6.7h6.9V171.9z"/>
</g>
</svg>
