<?xml version="1.0" encoding="utf-8"?>
<!-- Generator: Adobe Illustrator 25.1.0, SVG Export Plug-In . SVG Version: 6.00 Build 0)  -->
<svg version="1.1" id="Layer_1" xmlns="http://www.w3.org/2000/svg" xmlns:xlink="http://www.w3.org/1999/xlink" x="0px" y="0px"
	 viewBox="0 0 500 500" style="enable-background:new 0 0 500 500;" xml:space="preserve">
<style type="text/css">
	.st0{fill:#0D78C5;}
	.st1{fill:#FD9118;}
	.st2{fill:#B6202C;}
	.st3{fill:#0C974F;}
</style>
<path class="st0" d="M389.69,202.6c-1.03,0.18-2.09,0.2-3.14,0.05c-0.03,0-0.05,0-0.07-0.01h0.08L389.69,202.6z"/>
<path class="st0" d="M402.21,210.44l-111.6,193.61l-7.26,12.59l-5.15,8.92l-7.92,13.76l-7.12,12.36l-0.55,0.94
	c-5.24,9.07-16.82,12.17-25.89,6.93c-3.32-1.91-5.82-4.66-7.42-7.84c-1.79-3.52-2.45-7.56-1.83-11.51c0.35-2.24,1.11-4.46,2.32-6.54
	l3.22-5.58l4.19-7.26l10.78-18.66L358.35,211l27.64-0.35l4.31-0.06L402.21,210.44z"/>
<path class="st0" d="M352.41,161.53l-24.36,42.2c-3.33,5.75-9.36,9-15.6,9c-2.68,0-5.39-0.6-7.93-1.85
	c-6.41-3.15-10.07-9.56-10.07-16.18c0-3.08,0.79-6.21,2.47-9.08c2.5-4.26-0.75-9.62-5.69-9.62H127.38c-7.81,0-12.69,8.46-8.79,15.22
	l78.42,135.84c4.07,7.03,14.21,7.03,18.27,0l2.84-4.91c4.92-8.51,13.87-13.35,23.12-13.35c3.96,0,7.97,0.89,11.75,2.75
	c5.4,2.65,7.43,9.33,4.41,14.55l-37.86,65.58c-5.95,10.3-20.84,10.3-26.79,0L82.55,200.82l-1.56-2.7l-9.97-17.28
	c-0.54-0.94-1.02-1.88-1.43-2.84v-0.01c-1.39-3.18-2.1-6.44-2.23-9.67c-0.42-10.43,5.34-20.39,14.58-25.24
	c2.65-1.39,5.58-2.36,8.74-2.8v-0.01c1.27-0.18,2.58-0.27,3.92-0.27h245.38C351.03,140,357.93,151.96,352.41,161.53z"/>
<g>
	<polygon class="st1" points="385.31,204.53 385.31,204.52 385.3,204.53 	"/>
	<path class="st1" d="M380.07,170.26c-0.07,0.08-0.13,0.17-0.18,0.26l0.14,0.05C380.04,170.47,380.05,170.36,380.07,170.26z"/>
	<path class="st1" d="M407.4,164.06l-0.67,0.22c0.47,1.37,0.43,2.46-0.12,3.25c-0.41,0.59-1.05,0.94-1.63,1.13h-0.01
		c-0.71,0.25-1.33,0.28-1.33,0.28c-1.26-0.05-2.18,0.29-2.72,1.01c-0.59,0.78-0.59,1.81-0.49,2.54l-0.03-0.02
		c-1.51-1.01-3.19-1.57-4.88-1.69h-0.01c-0.22-0.02-0.45-0.03-0.67-0.03c-2.15-0.02-4.27,0.65-6.03,1.93
		c-0.34,0.24-0.67,0.5-0.97,0.8c-0.55,0.51-1.05,1.09-1.49,1.74l-1.83,2.73l-5.73,8.52c-1.3,1.94-1.85,4.16-1.69,6.33
		c0,0.01,0,0.01,0,0.02c0.1,1.59,0.59,3.15,1.42,4.52c0.74,1.24,1.75,2.33,3.02,3.19l0.76,0.5c1.3,0.87,2.72,1.4,4.18,1.61h0.07
		v0.01c1.05,0.15,2.11,0.13,3.14-0.05h0.08l0.05-0.03c0.01,0,0.02,0,0.03-0.01c0.01,0,0.03-0.01,0.04-0.01l0.73-0.32l0.61-0.03h0.01
		c0.95-0.33,1.85-0.79,2.67-1.39l0.01-0.01c0.93-0.68,1.75-1.52,2.43-2.53l5.68-8.44l1-1.5l0.88-1.3c0.66-0.98,1.13-2.04,1.4-3.13
		v-0.01c0.56-2.17,0.37-4.45-0.5-6.48c-0.72-1.7-1.92-3.23-3.55-4.36c-0.1-0.37-0.43-1.8,0.23-2.67c0.39-0.53,1.11-0.78,2.14-0.74
		c0.06,0,0.94-0.03,1.88-0.42c0.6-0.25,1.24-0.65,1.68-1.29C407.87,166.95,407.94,165.65,407.4,164.06z M389.26,179.75l-3.52-2.36
		l1.19-1.77c0.48-0.71,1.04-1.33,1.66-1.87c0.08-0.07,0.16-0.14,0.25-0.21c1.81-1.46,4.09-2.18,6.37-2.08h0.01
		c1.66,0.08,3.31,0.6,4.79,1.59l0.45,0.31l-1.24,1.85c-0.65-0.26-1.38-0.13-1.88,0.35c-0.08,0.08-0.16,0.18-0.23,0.28l-2.07,3.07
		c-0.47,0.7-0.34,1.6,0.23,2.19l-1.25,1.85L389.26,179.75z M399.44,177.4l-0.71,1.06l-1.35,2.02c-0.33,0.48-0.98,0.61-1.47,0.29
		c-0.48-0.33-0.61-0.98-0.28-1.47l2.04-3.04l0.02-0.03c0.33-0.49,0.99-0.62,1.47-0.29c0.23,0.15,0.39,0.39,0.44,0.68
		C399.66,176.89,399.6,177.17,399.44,177.4z M404.23,177.86c0.8,1.99,0.92,4.23,0.26,6.32c-0.26,0.85-0.65,1.67-1.17,2.45l-0.61,0.9
		l-0.58,0.87l-3.46-2.33l-0.79-0.53l-3.28-2.2l1.25-1.85c0.76,0.3,1.64,0.08,2.12-0.62l1.12-1.67l0.94-1.4
		c0.27-0.4,0.36-0.87,0.26-1.32c-0.06-0.35-0.25-0.63-0.49-0.87l1.24-1.84C402.51,174.84,403.59,176.27,404.23,177.86z"/>
</g>
<path class="st2" d="M379.89,170.52l0.14,0.05c0.01-0.1,0.02-0.21,0.04-0.31C380,170.34,379.94,170.43,379.89,170.52z"/>
<path class="st3" d="M423.46,185.76c-3.54,6.08-9.51,10.72-16.88,12.35c-0.15,0.04-0.31,0.07-0.46,0.1
	c-0.03,0.01-0.07,0.01-0.1,0.02c-2.4,0.49-4.79,0.61-7.12,0.42c-0.03,0-0.07-0.01-0.1-0.01l0.55-0.82c0.45,0.03,0.89,0.04,1.35,0.05
	h0.01c1.72,0.01,3.47-0.15,5.23-0.51c0.12-0.02,0.24-0.05,0.36-0.08c0.14-0.03,0.28-0.06,0.42-0.1c7.22-1.7,13.02-6.39,16.34-12.48
	c2.99-5.48,3.98-12.09,2.2-18.68c-2.66-9.88-11.13-17-20.9-18.38c-2.24-0.32-4.55-0.33-6.88-0.01c-5.11,0.71-9.62,2.88-13.18,6.02
	c-6.28,5.5-9.66,13.98-8.34,22.7c0.06,0.44,0.13,0.87,0.22,1.3c0.35,1.71,0.86,3.34,1.52,4.88c0.11,0.25,0.16,0.51,0.16,0.77
	c0,0.35-0.1,0.7-0.3,1c-1.01-2-1.77-4.18-2.24-6.47c-0.03-0.14-0.06-0.29-0.07-0.43c-1.76-9.39,1.78-18.59,8.54-24.47
	c3.68-3.22,8.32-5.44,13.58-6.17c2.15-0.3,4.28-0.32,6.36-0.08c10.42,1.16,19.55,8.63,22.38,19.11
	C428.02,172.86,426.84,179.97,423.46,185.76z"/>
<path class="st2" d="M420.86,179.09c-1.66,5.11-5.25,9.48-10.08,12.06c-1.75,0.93-3.65,1.63-5.69,2.04
	c-0.07,0.01-0.13,0.03-0.2,0.04c-0.91,0.18-1.83,0.28-2.73,0.34c0.37-0.57,0.97-0.95,1.65-1.05c0.26-0.04,0.52-0.08,0.78-0.13
	l0.33-0.06c2.46-0.5,4.73-1.43,6.73-2.71c4.28-2.7,7.38-6.95,8.68-11.81c0.97-3.61,0.95-7.56-0.32-11.46
	c-1.24-3.82-3.59-7.08-6.6-9.47c-1.05-0.82-2.17-1.55-3.36-2.16c-0.58-0.29-1.17-0.56-1.78-0.8c-2.84-1.13-5.96-1.62-9.13-1.33
	c-4.7,0.43-8.81,2.4-11.94,5.33c-3.1,2.9-5.25,6.75-6.05,10.97c0,0.01,0,0.01,0,0.01c-0.13,0.65-0.22,1.32-0.27,1.99
	c-0.16,1.87-0.06,3.8,0.33,5.74c0.05,0.27,0.11,0.53,0.17,0.79c0.13,0.5,0.06,1.02-0.23,1.44l-0.18,0.28
	c-0.25-0.75-0.46-1.54-0.62-2.33c-0.43-2.11-0.52-4.2-0.32-6.24c0.01-0.1,0.02-0.21,0.04-0.31c0.57-5.05,2.97-9.68,6.64-13.07
	c3.26-3.01,7.52-5.03,12.39-5.47c2.92-0.26,5.79,0.11,8.46,1.02c1.25,0.41,2.46,0.95,3.6,1.6c0.61,0.34,1.2,0.71,1.76,1.1
	c3.65,2.55,6.5,6.25,7.93,10.68C422.28,170.56,422.18,175.06,420.86,179.09z"/>
<path class="st0" d="M415.73,172.96c0,2.75-0.77,5.38-2.15,7.65c-1.56,2.56-3.89,4.65-6.74,5.89c0.58-0.88,1.33-1.63,2.19-2.24
	c1.89-1.35,3.4-3.15,4.41-5.22c1.21-2.46,1.7-5.3,1.25-8.18c-0.02-0.23-0.06-0.45-0.11-0.67c-1.53-7.5-8.87-12.36-16.37-10.84
	c-0.5,0.1-0.99,0.23-1.47,0.39c-2.14,0.68-4.02,1.85-5.53,3.37c-0.16,0.15-0.31,0.31-0.45,0.47c-1.05,1.14-1.9,2.45-2.52,3.88
	c-0.5,1.15-1.04,2.28-1.73,3.33l-0.15,0.23c0.37-2.79,1.53-5.41,3.32-7.53c0.19-0.24,0.39-0.47,0.61-0.69
	c2.33-2.46,5.54-4.16,9.27-4.53c0.16-0.01,0.32-0.03,0.49-0.04c6.68-0.46,12.96,3.84,14.98,10.23c0.09,0.29,0.18,0.58,0.25,0.87
	C415.59,170.55,415.73,171.77,415.73,172.96z"/>
<path class="st2" d="M391,133.85c-0.37,4.73-4.14,8.66-8.85,9.23c-3.05,0.37-5.87-0.62-7.95-2.44c-0.58-0.68-1.17-1.35-1.76-2.02
	C341.27,103.3,295.69,81,245,81c-46.03,0-87.84,18.39-118.47,48.2c-0.93,0.9-2.01,1.6-3.19,2.08c-1.18,0.47-2.45,0.72-3.74,0.72
	c-8.96,0-13.42-10.9-7-17.15C146.84,81.54,193.57,61,245,61c56.49,0,107.3,24.77,142.11,64.03c0.88,0.98,1.74,1.96,2.59,2.96
	C390.68,129.69,391.17,131.71,391,133.85z"/>
<path class="st3" d="M217.1,417.81c5.05,0.82,7.76,6.38,5.2,10.81l-0.03,0.04c-0.02,0.03-0.03,0.06-0.05,0.09
	c-3.22,5.62-9.54,8.7-15.89,7.41C119.75,418.49,54.41,341.73,54.41,250c0-12.91,1.29-25.52,3.76-37.71
	c0.11-0.53,0.22-1.05,0.33-1.58c0.42-1.99,1.34-3.88,2.8-5.3c1.8-1.75,4.24-2.82,6.91-2.82c5.55,0,10.05,4.61,10.05,10.3
	c0,0.64-0.06,1.26-0.17,1.86c-0.04,0.21-0.09,0.42-0.13,0.63c0,0.04-0.01,0.07-0.02,0.09c-2.31,11.15-3.53,22.7-3.53,34.54
	C74.41,334.45,136.29,404.71,217.1,417.81z"/>
<path class="st1" d="M436,252c0,82.84-53.27,152.45-127.36,178.39l-2.52,0.85c-2.45,0-4.7,0.01-7.15,0.01
	c-3.51-1.32-5.95-4.32-5.95-8.43c0-3.36,1.63-6.34,4.15-8.19c0.85-0.62,1.81-1.06,2.81-1.4c0.29-0.1,0.57-0.19,0.86-0.29
	C367.75,390.06,416,326.56,416,252c0-11.78-1.21-23.29-3.5-34.41c-0.31-1.51-0.65-3.02-1-4.52c-0.01-0.02-0.01-0.05-0.02-0.07
	c0.05-3.23,1.6-6.09,3.98-7.91c0.46-0.27,0.92-0.54,1.38-0.8c0.44-0.22,0.88-0.44,1.31-0.68h0.01c1.09-0.4,2.26-0.62,3.48-0.62
	c4.54,0,8.39,2.97,9.69,7.08c0.14,0.59,0.27,1.18,0.39,1.77C434.53,224.78,436,238.22,436,252z"/>
<path class="st2" d="M372.44,138.61c0.59,0.67,1.18,1.34,1.76,2.02C373.53,140.04,372.93,139.36,372.44,138.61z"/>
<path class="st2" d="M389.7,127.99c-0.85-1-1.71-1.98-2.59-2.96C388.16,125.83,389.04,126.84,389.7,127.99z"/>
</svg>
